<?xml version="1.0" encoding="UTF-8" standalone="no"?>
<svg xmlns="http://www.w3.org/2000/svg" width="32" height="32" viewBox="0 0 32 32">
  <!-- Апельсин -->
  <circle cx="16" cy="18" r="12" fill="#ff8c00" />
  <ellipse cx="16" cy="18" rx="11" ry="11" fill="#ffa500" />
  
  <!-- Блики на апельсине -->
  <ellipse cx="13" cy="15" rx="4" ry="3" fill="#ffc04d" fill-opacity="0.6" />
  <ellipse cx="19" cy="21" rx="2" ry="1.5" fill="#ffc04d" fill-opacity="0.4" />
  
  <!-- Текстура апельсина -->
  <path d="M16,6 Q22,12 22,18 Q22,24 16,30 Q10,24 10,18 Q10,12 16,6" fill="none" stroke="#e67300" stroke-width="0.5" />
  <path d="M7,18 L25,18" fill="none" stroke="#e67300" stroke-width="0.5" />
  <path d="M10,14 L22,14" fill="none" stroke="#e67300" stroke-width="0.5" />
  <path d="M10,22 L22,22" fill="none" stroke="#e67300" stroke-width="0.5" />
  
  <!-- Стебель -->
  <path d="M16,6 C16,5 17,4 18,3.5" fill="none" stroke="#8b4513" stroke-width="1" />
  
  <!-- Листик 1 -->
  <path d="M18,3.5 C20,3 22,4 21,6 C20,5 18,5 18,3.5" fill="#2e8b57" />
  
  <!-- Листик 2 -->
  <path d="M17,4.5 C15,3 14,5 15,6 C16,5 17,5 17,4.5" fill="#32cd32" />
</svg>