<?xml version="1.0" encoding="UTF-8" standalone="no"?>
<svg xmlns="http://www.w3.org/2000/svg" width="32" height="32" viewBox="0 0 32 32">
  <!-- Background -->
  <circle cx="16" cy="16" r="15" fill="#333333" stroke="#ff8000" stroke-width="1"/>
  
  <!-- Orange (Circle) -->
  <circle cx="16" cy="15" r="10" fill="#ff8800"/>
  
  <!-- Orange (Gradient for 3D effect) -->
  <radialGradient id="orangeGradient" cx="14" cy="13" r="12" gradientUnits="userSpaceOnUse">
    <stop offset="0%" stop-color="#ffaa00"/>
    <stop offset="70%" stop-color="#ff7700"/>
    <stop offset="100%" stop-color="#ff6600"/>
  </radialGradient>
  <circle cx="16" cy="15" r="10" fill="url(#orangeGradient)"/>
  
  <!-- Orange Slice -->
  <path d="M16,15 L21,21 A10,10 0 0,1 11,21 Z" fill="#ffcc00"/>
  <path d="M15,14 L20,20 A9,9 0 0,1 10,20 Z" fill="#ffffff" opacity="0.6"/>
  
  <!-- Orange Texture Lines -->
  <g stroke="#ffaa44" stroke-width="0.3" opacity="0.7">
    <path d="M16,10 L16,20" />
    <path d="M12,11 L20,19" />
    <path d="M20,11 L12,19" />
    <path d="M10,15 L22,15" />
  </g>
  
  <!-- Stem and Leaf -->
  <path d="M16,5 C15,6 14,7 15,8 C16,9 18,8 18,7 C18,6 17,5 16,5" fill="#339933"/>
  <path d="M15,8 C13,7 12,8 13,9" stroke="#339933" stroke-width="0.5" fill="none"/>
</svg>