<?xml version="1.0" encoding="UTF-8" standalone="no"?>
<svg width="150" height="150" viewBox="0 0 150 150" xmlns="http://www.w3.org/2000/svg">
  <!-- Background -->
  <circle cx="75" cy="75" r="70" fill="#333333" stroke="#ff8000" stroke-width="2"/>
  
  <!-- Orange (Circle) -->
  <circle cx="75" cy="70" r="45" fill="#ff8800"/>
  
  <!-- Orange (Gradient for 3D effect) -->
  <circle cx="75" cy="70" r="45" fill="url(#orangeGradient)"/>
  
  <!-- Orange Slice -->
  <path d="M75,70 L95,92 A45,45 0 0,1 55,92 Z" fill="#ffcc00"/>
  <path d="M70,65 L90,87 A40,40 0 0,1 50,87 Z" fill="#ffffff" opacity="0.6"/>
  
  <!-- Orange Texture Lines -->
  <g stroke="#ffaa44" stroke-width="0.5" opacity="0.7">
    <path d="M75,45 L75,95" />
    <path d="M60,50 L90,90" />
    <path d="M90,50 L60,90" />
    <path d="M55,70 L95,70" />
  </g>
  
  <!-- Stem and Leaf -->
  <path d="M75,25 C70,28 65,35 70,40 C72,42 85,40 85,35 C85,30 82,25 75,25" fill="#339933"/>
  <path d="M70,40 C60,35 55,40 60,45" stroke="#339933" stroke-width="2" fill="none"/>
  
  <!-- Name Text -->
  <text x="75" y="130" font-family="Arial, sans-serif" font-size="16" font-weight="bold" fill="#ff8000" text-anchor="middle">ORANGE USB</text>
  
  <!-- Definitions -->
  <defs>
    <radialGradient id="orangeGradient" cx="65" cy="60" r="50" gradientUnits="userSpaceOnUse">
      <stop offset="0%" stop-color="#ffaa00"/>
      <stop offset="70%" stop-color="#ff7700"/>
      <stop offset="100%" stop-color="#ff6600"/>
    </radialGradient>
  </defs>
</svg>