<?xml version="1.0" encoding="UTF-8" standalone="no"?>
<svg xmlns="http://www.w3.org/2000/svg" xmlns:xlink="http://www.w3.org/1999/xlink" width="200" height="200" viewBox="0 0 200 200">
  <!-- Апельсин -->
  <circle cx="100" cy="110" r="60" fill="#ff8c00" />
  <ellipse cx="100" cy="110" rx="58" ry="55" fill="#ffa500" />
  
  <!-- Блики на апельсине -->
  <ellipse cx="80" cy="90" rx="20" ry="15" fill="#ffc04d" fill-opacity="0.6" />
  <ellipse cx="115" cy="130" rx="10" ry="8" fill="#ffc04d" fill-opacity="0.4" />
  
  <!-- Текстура апельсина -->
  <path d="M100,50 Q130,80 130,110 Q130,140 100,170 Q70,140 70,110 Q70,80 100,50" fill="none" stroke="#e67300" stroke-width="1" />
  <path d="M60,110 L140,110" fill="none" stroke="#e67300" stroke-width="1" />
  <path d="M70,90 L130,90" fill="none" stroke="#e67300" stroke-width="1" />
  <path d="M70,130 L130,130" fill="none" stroke="#e67300" stroke-width="1" />
  
  <!-- Стебель -->
  <path d="M100,50 C100,45 105,40 110,38" fill="none" stroke="#8b4513" stroke-width="3" />
  
  <!-- Листик 1 -->
  <path d="M110,38 C120,35 130,40 125,50 C120,45 110,45 110,38" fill="#2e8b57" />
  
  <!-- Листик 2 -->
  <path d="M112,45 C125,40 135,48 130,56 C120,53 112,50 112,45" fill="#32cd32" />
  
  <!-- Листик 3 -->
  <path d="M105,42 C95,35 90,45 95,50 C100,45 105,45 105,42" fill="#2e8b57" />
  
  <!-- Листик 4 -->
  <path d="M103,48 C90,43 85,51 90,58 C95,53 100,50 103,48" fill="#32cd32" />
</svg>