<?xml version="1.0" encoding="UTF-8"?>
<svg width="200px" height="200px" viewBox="0 0 200 200" version="1.1" xmlns="http://www.w3.org/2000/svg">
    <title>Orange Juice Glass</title>
    <defs>
        <linearGradient id="orangeJuiceGradient" x1="0%" y1="0%" x2="0%" y2="100%">
            <stop offset="0%" style="stop-color:#FFA500;stop-opacity:1" />
            <stop offset="100%" style="stop-color:#FF8C00;stop-opacity:1" />
        </linearGradient>
        <linearGradient id="glassGradient" x1="0%" y1="0%" x2="100%" y2="0%">
            <stop offset="0%" style="stop-color:rgba(255,255,255,0.5);stop-opacity:1" />
            <stop offset="40%" style="stop-color:rgba(255,255,255,0.1);stop-opacity:1" />
            <stop offset="60%" style="stop-color:rgba(255,255,255,0.1);stop-opacity:1" />
            <stop offset="100%" style="stop-color:rgba(255,255,255,0.5);stop-opacity:1" />
        </linearGradient>
    </defs>
    <g stroke="none" fill="none">
        <!-- Glass -->
        <path d="M60,35 L140,35 L130,180 L70,180 Z" stroke="#FFFFFF" stroke-width="2" fill="url(#glassGradient)" />
        
        <!-- Orange Juice -->
        <path d="M62,40 L138,40 L128,175 L72,175 Z" fill="url(#orangeJuiceGradient)" />
        
        <!-- Glass Highlights -->
        <path d="M70,45 L80,45 L77,165 L67,165 Z" fill="rgba(255,255,255,0.2)" />
        <path d="M120,45 L130,45 L123,165 L113,165 Z" fill="rgba(0,0,0,0.1)" />
        
        <!-- Bubbles -->
        <circle cx="85" cy="70" r="3" fill="rgba(255,255,255,0.7)" />
        <circle cx="100" cy="90" r="2" fill="rgba(255,255,255,0.7)" />
        <circle cx="115" cy="60" r="4" fill="rgba(255,255,255,0.7)" />
        <circle cx="90" cy="120" r="3" fill="rgba(255,255,255,0.7)" />
        <circle cx="110" cy="140" r="2" fill="rgba(255,255,255,0.7)" />
        
        <!-- Orange slice on the glass rim -->
        <path d="M90,35 C90,25 110,25 110,35" stroke="#FF6600" stroke-width="2" fill="#FFA500" />
        <path d="M95,35 L105,35 L105,30 L95,30 Z" fill="#FFA500" />
    </g>
</svg>